<?xml version="1.0" standalone="no"?><!DOCTYPE svg PUBLIC "-//W3C//DTD SVG 1.1//EN" "http://www.w3.org/Graphics/SVG/1.1/DTD/svg11.dtd"><svg t="1680362141386" class="icon" viewBox="0 0 1024 1024" version="1.1" xmlns="http://www.w3.org/2000/svg" p-id="2809" xmlns:xlink="http://www.w3.org/1999/xlink" width="200" height="200"><path d="M510.7 64.1C265.3 64.1 66.3 263 66.3 508.4s198.9 444.3 444.3 444.3S955 753.8 955 508.4 756 64.1 510.7 64.1zM496.9 717c-119.7 0-217.6-98-217.6-217.6 0-119.7 98-217.6 217.6-217.6 21.8 0 36.3 14.5 36.3 36.3 0 21.8-14.5 36.3-36.3 36.3-80 0.2-144.8 65.1-145.1 145.1 0.2 80 65.1 144.9 145.1 145.1 80-0.2 144.8-65.1 145.1-145.1 0-21.8 14.5-36.3 36.3-36.3 21.7 0 36.3 14.5 36.3 36.3-0.1 119.6-98 217.5-217.7 217.5zM642 426.8c-40.1 0-72.5-32.5-72.5-72.5 0-40.1 32.5-72.5 72.5-72.5 40.1 0 72.6 32.5 72.6 72.5-0.1 40.1-32.5 72.5-72.6 72.5z" fill="#1E80FF" p-id="2810"></path></svg>