<svg width="16" height="16" viewBox="0 0 16 16" fill="none" xmlns="http://www.w3.org/2000/svg" class="icon" data-v-58dd1df2=""><path fill-rule="evenodd" clip-rule="evenodd" d="M11.0933 15C10.9447 15 10.8908 14.979 10.8365 14.95C10.7822 14.9209 10.7395 14.8843 10.7105 14.83C10.6814 14.7757 10.666 14.7186 10.666 14.57V13.4562C10.666 13.2906 10.5317 13.1562 10.366 13.1562L5.63264 13.1562C5.46696 13.1562 5.33264 13.2906 5.33264 13.4562L5.33264 14.57C5.33264 14.7186 5.31717 14.7757 5.28812 14.83C5.25907 14.8843 5.21644 14.9209 5.16212 14.95C5.10779 14.979 5.05391 15 4.90533 15H4.42662C4.27803 15 4.22415 14.979 4.16983 14.95C4.11551 14.9209 4.07288 14.8843 4.04383 14.83C4.01478 14.7757 3.99931 14.7186 3.99931 14.57L3.99931 13.4562C3.99931 13.2906 3.86499 13.1562 3.69931 13.1562H1.99931C1.63112 13.1562 1.33264 12.8578 1.33264 12.4896V1.66667C1.33264 1.29848 1.63112 1 1.99931 1H13.9993C14.3675 1 14.666 1.29848 14.666 1.66667L14.666 12.4896C14.666 12.8578 14.3675 13.1562 13.9993 13.1562H12.2993C12.1336 13.1562 11.9993 13.2906 11.9993 13.4562V14.57C11.9993 14.7186 11.9838 14.7757 11.9548 14.83C11.9257 14.8843 11.8831 14.9209 11.8288 14.95C11.7745 14.979 11.7206 15 11.572 15H11.0933ZM4.71871 4.51875C4.71871 4.35306 4.85302 4.21875 5.01871 4.21875H6.19996C6.36564 4.21875 6.49996 4.35306 6.49996 4.51875V5.7C6.49996 5.86568 6.36564 6 6.19996 6H5.01871C4.85302 6 4.71871 5.86568 4.71871 5.7V4.51875ZM9.79996 4.21875C9.63427 4.21875 9.49996 4.35306 9.49996 4.51875V5.7C9.49996 5.86568 9.63427 6 9.79996 6H10.9812C11.1469 6 11.2812 5.86568 11.2812 5.7V4.51875C11.2812 4.35306 11.1469 4.21875 10.9812 4.21875H9.79996Z" fill="#8A919F" data-v-58dd1df2=""></path></svg>
