<svg width="16" height="16" viewBox="0 0 16 16" fill="none" xmlns="http://www.w3.org/2000/svg" class="icon" data-v-58dd1df2=""><path fill-rule="evenodd" clip-rule="evenodd" d="M1.33341 4.00005L2.73653 3.99991C2.51747 2.72224 2.80835 1.59934 3.69164 1.08937C5.01484 0.325416 6.86456 1.40054 8.04543 3.30452C9.22588 1.40054 11.0756 0.325416 12.3988 1.08937C13.2821 1.59934 13.573 2.72224 13.3539 3.99991L14.6667 4.00005C15.0349 4.00005 15.3334 4.29853 15.3334 4.66672V7.33338C15.3334 7.70157 15.0349 8.00005 14.6667 8.00005L14.0001 7.99976V8.00008H2.00008V7.99976L1.33341 8.00005C0.965225 8.00005 0.666748 7.70157 0.666748 7.33338V4.66672C0.666748 4.29853 0.965225 4.00005 1.33341 4.00005ZM2.00008 9.33341V14.6667C2.00008 15.0349 2.29856 15.3334 2.66675 15.3334H13.3334C13.7016 15.3334 14.0001 15.0349 14.0001 14.6667V9.33341H2.00008ZM11.9943 3.99988C12.1931 3.13739 12.0841 2.44731 11.7321 2.24408C11.2107 1.94307 10.0309 2.63788 9.18283 3.99973H6.90757C6.07872 2.66884 4.93311 1.975 4.39484 2.2251L4.35828 2.24408C4.01886 2.44005 3.90542 3.08872 4.076 3.90814L4.09613 3.99988H11.9943Z" fill="#86909C" data-v-58dd1df2=""></path></svg>
