<svg width="16" height="16" viewBox="0 0 16 16" fill="none" xmlns="http://www.w3.org/2000/svg" class="icon" data-v-58dd1df2=""><path fill-rule="evenodd" clip-rule="evenodd" d="M14.6667 13.6641C14.8508 13.6641 15 13.8133 15 13.9974V14.6641C15 14.8482 14.8508 14.9974 14.6667 14.9974H1.33333C1.14924 14.9974 1 14.8482 1 14.6641V13.9974C1 13.8133 1.14924 13.6641 1.33333 13.6641H14.6667Z" fill="currentColor" data-v-58dd1df2=""></path><path fill-rule="evenodd" clip-rule="evenodd" d="M5.25 8.5C5.25 8.22386 5.02614 8 4.75 8H3.25C2.97386 8 2.75 8.22386 2.75 8.5V11.5C2.75 11.7761 2.97386 12 3.25 12H4.75C5.02614 12 5.25 11.7761 5.25 11.5V8.5Z" fill="currentColor" data-v-58dd1df2=""></path><path fill-rule="evenodd" clip-rule="evenodd" d="M9.25 5.5C9.25 5.22386 9.02614 5 8.75 5H7.25C6.97386 5 6.75 5.22386 6.75 5.5V11.5C6.75 11.7761 6.97386 12 7.25 12H8.75C9.02614 12 9.25 11.7761 9.25 11.5V5.5Z" fill="currentColor" data-v-58dd1df2=""></path><path fill-rule="evenodd" clip-rule="evenodd" d="M13.25 2.5C13.25 2.22386 13.0261 2 12.75 2H11.25C10.9739 2 10.75 2.22386 10.75 2.5V11.5C10.75 11.7761 10.9739 12 11.25 12H12.75C13.0261 12 13.25 11.7761 13.25 11.5V2.5Z" fill="currentColor" data-v-58dd1df2=""></path></svg>
