<svg width="16" height="16" viewBox="0 0 16 16" fill="none" xmlns="http://www.w3.org/2000/svg" class="icon" data-v-58dd1df2=""><path fill-rule="evenodd" clip-rule="evenodd" d="M9.99992 1C10.5522 1 10.9999 1.44772 10.9999 2V3.66667H12.9903C13.1604 3.66667 13.3021 3.78469 13.3251 3.94561L14.664 13.9456C14.6866 14.1272 14.5592 14.2988 14.3797 14.3289C14.3619 14.3318 14.344 14.3333 14.3261 14.3333H1.67369C1.49286 14.3333 1.34055 14.1841 1.3335 14C1.3328 13.9818 1.33358 13.9636 1.33581 13.9456L2.67467 3.94561C2.69774 3.78469 2.83942 3.66667 3.00947 3.66667H4.99992V2C4.99992 1.46744 5.41622 1.03211 5.94116 1.0017L5.99992 1H9.99992ZM9.66661 2.33333H6.33327V3.66667H9.66661V2.33333ZM5.74994 8.5C5.33573 8.5 4.99994 8.83579 4.99994 9.25C4.99994 9.66421 5.33573 10 5.74994 10H10.2499C10.6642 10 10.9999 9.66421 10.9999 9.25C10.9999 8.83579 10.6642 8.5 10.2499 8.5H5.74994Z" fill="#86909C" data-v-58dd1df2=""></path></svg>
