<?xml version="1.0" standalone="no"?><!DOCTYPE svg PUBLIC "-//W3C//DTD SVG 1.1//EN" "http://www.w3.org/Graphics/SVG/1.1/DTD/svg11.dtd"><svg t="1682176439347" class="icon" viewBox="0 0 1024 1024" version="1.1" xmlns="http://www.w3.org/2000/svg" p-id="4328" xmlns:xlink="http://www.w3.org/1999/xlink" width="200" height="200"><path d="M512 845.206349c-78.154497 0-151.658554-31.740388-206.876896-89.351675-55.308642-57.611287-85.694533-134.185538-85.694533-215.635979 0-31.740388 4.605291-62.758377 13.680424-92.19612 9.029982-29.347443 22.304056-56.43739 39.415873-80.502293l1.444797-1.896296 3.295943-3.928042c31.243739-36.842328 49.213404-67.815168 56.48254-97.52381 1.986596-7.946384 4.514991-30.114991 7.178836-62.352028l1.851147-23.071605 22.304056 0.677249c21.401058 0.632099 35.62328 1.670547 44.698413 3.295943 46.820459 8.217284 89.396825 30.250441 123.349559 63.661376a232.747795 232.747795 0 0 1 65.241622 121.137213l2.889595 14.718871 5.959788-13.680423c4.560141-10.38448 8.172134-21.265608 10.655379-32.327337 1.354497-6.004938 3.657143-16.840917 6.682187-31.288889l6.501587-31.063139 27.270547 14.357672c17.021517 8.984832 28.218695 15.757319 35.216931 21.310758a290.810582 290.810582 0 0 1 110.888184 228.955203c0 82.08254-30.385891 159.153439-85.604233 217.035626-55.082892 57.837037-128.541799 89.667725-206.831746 89.667725z" fill="#8a919f" p-id="4329"></path></svg>