<?xml version="1.0" standalone="no"?><!DOCTYPE svg PUBLIC "-//W3C//DTD SVG 1.1//EN" "http://www.w3.org/Graphics/SVG/1.1/DTD/svg11.dtd"><svg t="1682171774706" class="icon" viewBox="0 0 1194 1024" version="1.1" xmlns="http://www.w3.org/2000/svg" p-id="8350" xmlns:xlink="http://www.w3.org/1999/xlink" width="233.203125" height="200"><path d="M240.42633703 240.42633703v543.14732594h651.77679062V240.42633703H240.42633703z m0-54.31473234h651.77679062a54.31473234 54.31473234 0 0 1 54.31473297 54.31473234v543.14732594a54.31473234 54.31473234 0 0 1-54.31473297 54.31473234H240.42633703a54.31473234 54.31473234 0 0 1-54.31473234-54.31473234V240.42633703a54.31473234 54.31473234 0 0 1 54.31473234-54.31473234z" fill="#4e5969" p-id="8351"></path><path d="M403.37053469 403.37053469m-54.31473235 0a54.31473234 54.31473234 0 1 0 108.62946532 0 54.31473234 54.31473234 0 1 0-108.62946532 0Z" fill="#4e5969" p-id="8352"></path><path d="M267.58370352 667.25866279l154.03658131-128.1827684 100.48225543 49.69798028L703.10638627 430.52790117l162.34673601 205.66273501V756.41629648H267.58370352z" fill="#4e5969" p-id="8353"></path></svg>