<?xml version="1.0" standalone="no"?><!DOCTYPE svg PUBLIC "-//W3C//DTD SVG 1.1//EN" "http://www.w3.org/Graphics/SVG/1.1/DTD/svg11.dtd"><svg t="1682782526539" class="icon" viewBox="0 0 1024 1024" version="1.1" xmlns="http://www.w3.org/2000/svg" p-id="9882" xmlns:xlink="http://www.w3.org/1999/xlink" width="200" height="200"><path d="M512 26.074074c268.189393 0 485.925926 217.736533 485.925926 485.925926S780.189393 997.925926 512 997.925926 26.074074 780.189393 26.074074 512 243.810607 26.074074 512 26.074074z m0 34.133333C262.648415 60.207407 60.207407 262.648415 60.207407 512S262.648415 963.792593 512 963.792593 963.792593 761.351585 963.792593 512 761.351585 60.207407 512 60.207407z m-166.817185 361.85126c-0.037926-1.462044-0.056889-2.927881-0.056889-4.399408 0-92.101215 74.772859-166.874074 166.874074-166.874074s166.874074 74.772859 166.874074 166.874074c0 1.471526-0.018963 2.937363-0.056889 4.399408 35.525215 11.645156 61.212444 45.09203 61.212445 84.489481v177.777778c0 49.059081-39.829807 88.888889-88.888889 88.888889h-278.281482c-49.059081 0-88.888889-39.829807-88.888889-88.888889v-177.777778c0-39.397452 25.68723-72.844326 61.212445-84.489481z m299.851852 26.415407A136.730548 136.730548 0 0 0 648.533333 417.659259c0-75.355022-61.178311-136.533333-136.533333-136.533333s-136.533333 61.178311-136.533333 136.533333c0 10.594607 1.209837 20.910459 3.498666 30.814815h266.069334zM512 658.962963c-16.222815 0-29.392593 13.169778-29.392593 29.392593s13.169778 29.392593 29.392593 29.392592 29.392593-13.169778 29.392593-29.392592-13.169778-29.392593-29.392593-29.392593z m29.392593-149.333333a14.703881 14.703881 0 0 0-14.696297-14.696297h-29.392592a14.703881 14.703881 0 0 0-14.696297 14.696297v115.674074a14.703881 14.703881 0 0 0 14.696297 14.696296h29.392592a14.703881 14.703881 0 0 0 14.696297-14.696296v-115.674074z" p-id="9883" fill="#8a919f"></path></svg>