<svg data-v-7bffefe7="" width="16" height="16" viewBox="0 0 16 16" xmlns="http://www.w3.org/2000/svg" class="points-icon"><path data-v-7bffefe7="" fill-rule="evenodd" clip-rule="evenodd" d="M8 1.33594C11.866 1.33594 15 2.97756 15 5.0026C15 7.02765 11.866 8.66927 8 8.66927C4.13401 8.66927 1 7.02765 1 5.0026C1 2.97756 4.13401 1.33594 8 1.33594ZM2.33333 8.33593H1L1.00131 8.40619C1.07468 10.3658 4.21498 11.6693 8 11.6693C11.8301 11.6693 15 10.3346 15 8.33593H13.6667L13.665 8.37777C13.593 9.31356 11.119 10.3359 8 10.3359C4.83448 10.3359 2.33333 9.28281 2.33333 8.33593ZM8 13.3359C4.83448 13.3359 2.33333 12.2828 2.33333 11.3359H1C1 13.3346 4.16992 14.6693 8 14.6693C11.8301 14.6693 15 13.3346 15 11.3359H13.6667C13.6667 12.2828 11.1655 13.3359 8 13.3359ZM2.33398 5.00326C2.33398 3.94808 4.7741 2.66992 8.00065 2.66992C11.2272 2.66992 13.6673 3.94808 13.6673 5.00326C13.6673 6.05843 11.2272 7.33659 8.00065 7.33659C4.7741 7.33659 2.33398 6.05843 2.33398 5.00326Z"></path></svg>
