<svg data-v-428052fe="" width="24" height="24" viewBox="0 0 24 24" fill="none" xmlns="http://www.w3.org/2000/svg" class="stick-btn"><circle data-v-428052fe="" cx="12" cy="12" r="12" fill="url(#paint0_linear_8874_115135)"></circle><circle data-v-428052fe="" cx="12" cy="12" r="12" fill="url(#paint1_radial_8874_115135)"></circle><path data-v-428052fe="" d="M6 17.7016L8.03219 13.5205L10.1042 14.509L8.03219 18.7031L6 17.7016ZM6.17613 11.6884L7.22727 9.9709L10.1174 11.54L9.06818 13.2575L6.17613 11.6884ZM6.38068 8.33232L7.52651 6.70312L10.4716 8.44882L9.33522 10.1006L6.38068 8.33232ZM10.1174 12.2296H12.4091V6.75574H15.4394V8.86598H18V10.4895H15.4356V12.2221H17.7083V18.2972L10.1117 18.6618L10.1174 12.2296ZM12.9811 16.7752L15.6136 16.653V13.9001H12.9811V16.7752Z" fill="url(#paint2_linear_8874_115135)"></path><path data-v-428052fe="" d="M6 16.6703L8.03219 12.4893L10.1042 13.4777L8.03219 17.6719L6 16.6703ZM6.17613 10.6572L7.22727 8.93965L10.1174 10.5087L9.06818 12.2262L6.17613 10.6572ZM6.38068 7.30107L7.52651 5.67188L10.4716 7.41757L9.33522 9.0693L6.38068 7.30107ZM10.1174 11.1983H12.4091V5.72449H15.4394V7.83473H18V9.45828H15.4356V11.1908H17.7083V17.266L10.1117 17.6305L10.1174 11.1983ZM12.9811 15.7439L15.6136 15.6218V12.8689H12.9811V15.7439Z" fill="#FFF9F0"></path><defs data-v-428052fe=""><linearGradient data-v-428052fe="" id="paint0_linear_8874_115135" x1="5.5" y1="-3.09199e-07" x2="19" y2="24" gradientUnits="userSpaceOnUse"><stop data-v-428052fe="" stop-color="#FF8D4D"></stop><stop data-v-428052fe="" offset="1" stop-color="#F26426"></stop></linearGradient><radialGradient data-v-428052fe="" id="paint1_radial_8874_115135" cx="0" cy="0" r="1" gradientUnits="userSpaceOnUse" gradientTransform="translate(8.59375 6.875) rotate(58.6828) scale(17.3753)"><stop data-v-428052fe="" stop-color="#FFB84D" stop-opacity="0.73"></stop><stop data-v-428052fe="" offset="0.570433" stop-color="#FA973E" stop-opacity="0.5"></stop><stop data-v-428052fe="" offset="1" stop-color="#F26426" stop-opacity="0"></stop></radialGradient><linearGradient data-v-428052fe="" id="paint2_linear_8874_115135" x1="15.75" y1="17.875" x2="12" y2="4.75" gradientUnits="userSpaceOnUse"><stop data-v-428052fe="" stop-color="#C64D16"></stop><stop data-v-428052fe="" offset="0.521882" stop-color="#C64D16" stop-opacity="0.611765"></stop><stop data-v-428052fe="" offset="1" stop-color="#C64D16" stop-opacity="0"></stop></linearGradient></defs></svg>
