<svg width="16" height="16" viewBox="0 0 16 16" fill="none" xmlns="http://www.w3.org/2000/svg" class="icon" data-v-58dd1df2=""><path fill-rule="evenodd" clip-rule="evenodd" d="M15 5.00004C15 2.975 11.866 1.33337 8 1.33337C4.13401 1.33337 1 2.975 1 5.00004C1 7.02508 4.13401 8.66671 8 8.66671C11.866 8.66671 15 7.02508 15 5.00004ZM1 8.33337H2.33333C2.33333 9.28026 4.83448 10.3334 8 10.3334C11.119 10.3334 13.593 9.311 13.665 8.37521L13.6667 8.33337H15C15 10.332 11.8301 11.6667 8 11.6667C4.21498 11.6667 1.07468 10.3632 1.00131 8.40364L1 8.33337ZM2.33333 11.3334C2.33333 12.2803 4.83448 13.3334 8 13.3334C11.1655 13.3334 13.6667 12.2803 13.6667 11.3334H15C15 13.332 11.8301 14.6667 8 14.6667C4.16992 14.6667 1 13.332 1 11.3334H2.33333Z" fill="#86909C" data-v-58dd1df2=""></path></svg>
